<svg xmlns="http://www.w3.org/2000/svg" viewBox="0 0 612 237.9"><path d="M98.7 12.8h.7c.4.2.7.4 1.1.6 22.5 13 45.1 26 67.6 39 4.5 2.6 9 5.2 13.4 7.7.8.5.8.7 0 1.2-.1.1-.2.1-.4.2-29.2 17.9-58.4 35.8-87.7 53.7-.8.5-1.3 1.1-1.3 2.1v82.6c0 1.2.2 1.3 1.2.7 24.1-14.2 48.3-28.5 72.4-42.7.8-.5 1.1-1.1 1.1-2v-19.8c0-.4-.1-.7-.2-1.1-.3.1-.7.3-1 .4-.1 0-.1.1-.1.1-17.6 10.8-35.3 21.7-52.9 32.5-.3.2-.7.2-1 .4-.1-.3-.2-.7-.2-1v-39.3c0-1 .3-1.6 1.2-2.1 25.8-15.2 51.5-30.5 77.3-45.7 1-.6 1.2-.5 1.2.6 0 8.2.1 16.5.1 24.7 0 16.9.1 33.8.1 50.7 0 2.5.1 4.9.1 7.4v7.8c-.4.4-.7 1-1.2 1.3-29.7 17.4-59.5 34.8-89.2 52.2-.8.5-1.5.5-2.4 0-13-7.5-25.9-15-38.9-22.5-.9-.5-1.2-1.1-1.2-2.1V97.2c0-1 .3-1.6 1.2-2.1C76 85.6 92.5 75.7 109 65.9c.9-.5 1.6-.5 2.5-.1 5.7 3.1 11.5 6.1 17.3 9.2 1 .6 1.9.6 2.9 0 2.5-1.6 5.2-3 7.8-4.5 2-1.1 3.9-2.3 5.9-3.4.7-.4.7-.7 0-1.1-.1-.1-.3-.2-.4-.3-17.7-10.5-35.3-21-53-31.5-4.6-2.7-9.1-5.4-13.7-8.1-.9-.5-.9-.7 0-1.3.2-.1.4-.2.6-.4 6.6-3.8 13.2-7.7 19.8-11.6z"/><path d="M7.4 66.8c.4-.4.8-1 1.3-1.3 17.1-10 34.2-20 51.2-30 .9-.5 1.6-.5 2.5 0C71 41 79.5 46.4 88 51.8c1.1.7 1.1.9 0 1.5-16.7 10.2-33.5 20.4-50.3 30.5-1 .6-1.4 1.3-1.4 2.5v101.3c0 .4-.2.9-.2 1.3-.4-.2-.8-.3-1.2-.5l-26.1-15c-.5-.3-1-.9-1.4-1.3V66.8z"/><path d="M225.2 92.7c13.7 0 22.9 3.4 28.7 9.2s8.1 13.9 8.1 23.1-2.3 17.3-8.1 23.1c-5.8 5.8-15.1 9.2-28.7 9.2h-9c-.4 0-.7-.3-.7-.7 0-.4.3-.7.7-.7h9c13.4 0 22.3-3.4 27.8-8.8 5.5-5.5 7.7-13.2 7.7-22.1 0-8.9-2.2-16.6-7.7-22.1s-14.3-8.8-27.8-8.8h-9c-.4 0-.7-.3-.7-.7s.3-.7.7-.7h9zm110 0c.4 0 .7.3.7.7s-.3.7-.7.7H290c-.4 0-.7-.3-.7-.7s.3-.7.7-.7h45.2zm-4.5 31.7c.4 0 .7.3.7.7 0 .4-.3.7-.7.7H290c-.4 0-.7-.3-.7-.7 0-.4.3-.7.7-.7h40.7zm4.5 31.6c.4 0 .7.3.7.7 0 .4-.3.7-.7.7H290c-.4 0-.7-.3-.7-.7 0-.4.3-.7.7-.7h45.2zm80.9-54.9c.1.1.2.3.2.5 0 .4-.3.7-.7.7-.2 0-.4-.1-.5-.2-4.7-4.6-13.2-8-24.5-8-8.9 0-15.7 2.2-20.3 5.4-4.6 3.1-6.9 7.2-6.9 10.8 0 2.3.8 4.1 2.2 5.6 1.4 1.5 3.4 2.8 5.9 3.9 5 2.1 11.7 3.5 18.5 4.7 6.8 1.3 13.6 2.6 18.8 4.8 2.6 1.1 4.8 2.4 6.4 4.2 1.6 1.7 2.5 3.9 2.5 6.4 0 5.5-3.6 10-8.8 12.9-5.2 3-12.1 4.6-19 4.6-10.8 0-21.1-2.8-28.9-8.6-.2-.1-.3-.4-.3-.6 0-.4.3-.7.7-.7.1 0 .3.1.4.1 7.5 5.6 17.6 8.3 28.1 8.3 6.7 0 13.4-1.6 18.3-4.4 5-2.8 8.1-6.8 8.1-11.8 0-2.2-.8-4-2.2-5.5-1.4-1.5-3.4-2.8-5.9-3.8-5-2.1-11.7-3.4-18.5-4.7-6.8-1.3-13.6-2.6-18.8-4.8-2.6-1.1-4.8-2.5-6.4-4.2-1.6-1.8-2.5-3.9-2.5-6.5 0-4.2 2.7-8.6 7.5-11.9 4.9-3.3 12-5.6 21.1-5.6 11.6 0 20.5 3.5 25.5 8.4zm28.9-7.7c0-.4.3-.7.7-.7.4 0 .7.3.7.7v63.3c0 .4-.3.7-.7.7-.4 0-.7-.3-.7-.7V93.4zm81.6 8.6c.1.1.2.3.2.5 0 .4-.3.7-.7.7-.2 0-.4-.1-.5-.2-5.5-5.5-13.3-8.8-22.1-8.8-17.7 0-31 13.2-31 31 0 17.7 13.2 31 31 31 8.8 0 16.4-3.3 21.9-8.7v-21.6h-31c-.4 0-.7-.3-.7-.7 0-.4.3-.7.7-.7H526c.4 0 .7.3.7.7v22.6c0 .2-.1.4-.2.5-5.8 5.8-13.9 9.2-23.1 9.2-18.4 0-32.3-13.9-32.3-32.3s13.9-32.3 32.3-32.3c9.3-.2 17.4 3.3 23.2 9.1zm73.3-9.3c.4 0 .7.3.7.7v63.3c0 .4-.3.7-.7.7-.2 0-.4-.1-.6-.3l-44-61.6v61.2c0 .4-.3.7-.7.7-.4 0-.7-.3-.7-.7V93.4c0-.4.3-.7.7-.7.2 0 .4.1.6.3l44 61.6V93.4c.1-.4.4-.7.7-.7z" stroke="#000" stroke-width="3" stroke-miterlimit="10"/></svg>